<svg xmlns="http://www.w3.org/2000/svg" width="20.742" height="20.742" viewBox="0 0 20.742 20.742">
  <g id="Group_22260" data-name="Group 22260" transform="translate(-653.133 -26.626)">
    <path id="Path_5233" data-name="Path 5233" d="M67.877,11a1.216,1.216,0,1,0,1.216,1.216A1.215,1.215,0,0,0,67.877,11" transform="translate(601.118 19.331)" fill="#fff"/>
    <path id="Path_5234" data-name="Path 5234" d="M62.471,12.558a5.108,5.108,0,1,0,5.108,5.108,5.113,5.113,0,0,0-5.108-5.108m0,8.38a3.272,3.272,0,1,1,3.272-3.272,3.276,3.276,0,0,1-3.272,3.272" transform="translate(601.118 19.331)" fill="#fff"/>
    <path id="Path_5235" data-name="Path 5235" d="M66.526,28.037H58.245a6.237,6.237,0,0,1-6.23-6.23V13.525a6.236,6.236,0,0,1,6.23-6.23h8.281a6.237,6.237,0,0,1,6.231,6.23v8.282a6.238,6.238,0,0,1-6.231,6.23M58.245,9.246a4.283,4.283,0,0,0-4.279,4.279v8.282a4.284,4.284,0,0,0,4.279,4.279h8.281a4.285,4.285,0,0,0,4.28-4.279V13.525a4.284,4.284,0,0,0-4.28-4.279Z" transform="translate(601.118 19.331)" fill="#fff"/>
  </g>
</svg>
