<svg id="Group_22253" data-name="Group 22253" xmlns="http://www.w3.org/2000/svg" xmlns:xlink="http://www.w3.org/1999/xlink" width="59.698" height="59.5" viewBox="0 0 59.698 59.5">
  <defs>
    <clipPath id="clip-path">
      <rect id="Rectangle_1670" data-name="Rectangle 1670" width="59.698" height="59.5" fill="none"/>
    </clipPath>
  </defs>
  <g id="Group_22252" data-name="Group 22252" clip-path="url(#clip-path)">
    <path id="Path_5255" data-name="Path 5255" d="M2.28,104.493H57.411V88.015q0-9.092,0-18.184a2.918,2.918,0,0,0-1.482-2.656,2.652,2.652,0,0,0-1.383-.383l-4,0H40.576a1.187,1.187,0,0,1-1.059-.519,1.155,1.155,0,0,1,.915-1.806c.059,0,.118,0,.177,0q6.884,0,13.767,0A5.154,5.154,0,0,1,58.4,66.27a4.954,4.954,0,0,1,1.288,3.354q0,7.536,0,15.071,0,6.176,0,12.352c0,4.036.023,8.073-.009,12.108a5.3,5.3,0,0,1-3.1,4.915,5.2,5.2,0,0,1-2.445.558q-5.613,0-11.226,0c-.419,0-.838-.035-1.257-.035q-14.669.016-29.337.035c-.548,0-1.1-.033-1.643-.031-1.7.006-3.4.036-5.1.029A5.457,5.457,0,0,1,.728,111.88,4.757,4.757,0,0,1,0,109.323Q0,97.876,0,86.428,0,78.109,0,69.79A5.125,5.125,0,0,1,2.576,65.2a4.863,4.863,0,0,1,2.595-.733c2.556-.012,5.112-.007,7.668,0a1.183,1.183,0,0,1,1.176.882,1.117,1.117,0,0,1-.593,1.295,1.573,1.573,0,0,1-.68.143q-3.735.015-7.469,0a2.947,2.947,0,0,0-2.99,2.962q-.012,6.42,0,12.839v21.905m.016,2.348c-.008.072-.014.108-.014.143,0,.744-.032,1.49.012,2.231a3.3,3.3,0,0,0,.281,1.191,3.11,3.11,0,0,0,2.985,1.911c3.211.009,6.421,0,9.632,0q19.458,0,38.917,0a3.669,3.669,0,0,0,.764-.078,3.21,3.21,0,0,0,2.535-3.111c.021-.677,0-1.355,0-2.033,0-.078-.007-.157-.011-.255Z" transform="translate(0 -55.13)" fill="#32a05f"/>
    <path id="Path_5256" data-name="Path 5256" d="M83.931,22.465h-.323q-13.149,0-26.3,0a1.186,1.186,0,0,1-1.109-.58,1.133,1.133,0,0,1,.9-1.706c.729,0,1.458,0,2.187,0h6.652c.582,0,1.164,0,1.745,0,.086,0,.172-.012.314-.023a6.753,6.753,0,0,0-.123-1.129c-.3-1.058-.673-2.094-.952-3.157-.248-.942-.422-1.9-.6-2.862a27.85,27.85,0,0,1-.266-5.24c0-.1,0-.2,0-.324H52.238c-.005.11-.014.211-.015.311,0,1.68-.005,3.359,0,5.039a1.361,1.361,0,0,1-.378.978c-1.142,1.23-2.27,2.473-3.428,3.688a7.47,7.47,0,0,0-1.393,1.824,4.961,4.961,0,0,0-.582,2.15c-.016,3.086-.012,6.173-.013,9.259A1.8,1.8,0,0,0,48.051,32.5,1.662,1.662,0,0,0,49.737,31.5a2.293,2.293,0,0,0,.172-.875q.018-4.243,0-8.486a1.187,1.187,0,0,1,.716-1.2,3.671,3.671,0,0,1,.617-.154,4.438,4.438,0,0,0,2.392-1.389,3.481,3.481,0,0,0,.8-2.057,1.175,1.175,0,0,1,1.189-1.094,1.152,1.152,0,0,1,1.106,1.215,5.59,5.59,0,0,1-2.129,4.2,7.119,7.119,0,0,1-2.358,1.248c-.007.1-.019.2-.019.3,0,2.5.019,5.009-.008,7.513a3.889,3.889,0,0,1-2.463,3.759A3.944,3.944,0,0,1,44.7,32.762a4.474,4.474,0,0,1-.594-2.294q0-4.232,0-8.464a8.133,8.133,0,0,1,2.287-5.763c1.12-1.19,2.229-2.39,3.346-3.583a.609.609,0,0,0,.182-.45c-.007-1.5,0-3.005,0-4.508,0-.079-.007-.159-.012-.251a2.124,2.124,0,0,1-1.1-.37A1.8,1.8,0,0,1,48.02,5.6c-.007-1.215.024-2.43-.01-3.644A1.906,1.906,0,0,1,49.947,0c.419.006.838.032,1.256.033.372,0,.745-.032,1.117-.032q6.619,0,13.237,0c.468,0,.936.034,1.4.034S67.874,0,68.329,0a1.849,1.849,0,0,1,1.63.877,1.725,1.725,0,0,1,.292.955c.005,1.252.009,2.5,0,3.757a1.894,1.894,0,0,1-1.722,1.833c-.057,0-.114.014-.176.022a.394.394,0,0,0-.022.092c.035,1.28.046,2.562.117,3.84a14.457,14.457,0,0,0,.288,2.182c.193.909.459,1.8.71,2.7.218.776.485,1.539.682,2.32a9.869,9.869,0,0,1,.16,1.31c.01.086.012.173.018.264a1.214,1.214,0,0,0,.168.025l2.605,0c.6,0,1.206,0,1.809,0q5.06,0,10.121,0a1.109,1.109,0,0,1,1.123.685,1.2,1.2,0,0,1,.088.469c.007,1.223,0,2.446,0,3.668q0,8.232,0,16.464a1.111,1.111,0,0,1-.649,1.083,1.461,1.461,0,0,1-.617.131q-2.95.014-5.9,0c-.542,0-1.085-.034-1.627-.032-1.354,0-2.709.031-4.063.032q-11.07,0-22.141,0c-1.1,0-2.2-.027-3.307-.032-.426,0-.851.032-1.277.032q-3.746,0-7.491,0a1.166,1.166,0,0,1-1.121-.565,1.6,1.6,0,0,1-.179-.733c-.013-2.46-.008-4.921-.008-7.381q0-3.536,0-7.072c0-1.834,0-3.668,0-5.5a1.177,1.177,0,0,1,.661-1.15,1.082,1.082,0,0,1,.468-.095c1.112-.008,2.225.008,3.337-.009a1.144,1.144,0,0,1-.021,2.287c-.619,0-1.238,0-1.856,0h-.26V40.348H83.931ZM67.923,2.315h-17.6v2.8h17.6Z" transform="translate(-32.369 0)" fill="#32a05f"/>
    <path id="Path_5257" data-name="Path 5257" d="M273.782,168.82h-.3q-2.508,0-5.016,0a1.2,1.2,0,0,1-1.093-.543,1.1,1.1,0,0,1-.061-1.134,1.119,1.119,0,0,1,1.05-.641c.921-.01,1.841,0,2.762,0,1.193,0,2.387,0,3.58,0a1.141,1.141,0,0,1,1.116.743,3.617,3.617,0,0,1,.116.649.985.985,0,0,0,.551.775,2.64,2.64,0,0,0,.663.15,1.135,1.135,0,0,1,.921.966,2.157,2.157,0,0,1,.011.243q0,3.79,0,7.58a1.146,1.146,0,0,1-.6,1.1,1.42,1.42,0,0,1-.545.151,1.046,1.046,0,0,0-1,.886,3.543,3.543,0,0,1-.2.8.99.99,0,0,1-.941.581q-3.249.011-6.5,0a1.147,1.147,0,0,1-.005-2.293c1.716-.012,3.433-.006,5.149-.007h.34a3.527,3.527,0,0,1,1.982-2.064v-5.879a3.526,3.526,0,0,1-1.978-2.056" transform="translate(-228.511 -142.398)" fill="#32a05f"/>
    <path id="Path_5258" data-name="Path 5258" d="M243.233,173.872a14.574,14.574,0,0,1-.691,4.251,11.15,11.15,0,0,1-.474,1.156,14.623,14.623,0,0,1-.666,1.351,1.123,1.123,0,0,1-1.555.389,1.143,1.143,0,0,1-.4-1.574,10.246,10.246,0,0,0,1.118-2.76,10.506,10.506,0,0,0,.3-3.435,17.46,17.46,0,0,0-.3-2.157,9.39,9.39,0,0,0-1.1-2.762,1.158,1.158,0,0,1,1.019-1.772,1.061,1.061,0,0,1,.905.508,10.221,10.221,0,0,1,1.2,2.707,22.207,22.207,0,0,1,.487,2.209c.1.622.113,1.258.164,1.888" transform="translate(-204.645 -142.453)" fill="#32a05f"/>
    <path id="Path_5259" data-name="Path 5259" d="M143.348,173.846c.089-.847.136-1.7.278-2.539a12.052,12.052,0,0,1,1.538-4.185,1.146,1.146,0,0,1,2.075.191,1.176,1.176,0,0,1-.111,1.019,9.188,9.188,0,0,0-1.012,2.4,14.369,14.369,0,0,0-.337,1.816,9.985,9.985,0,0,0-.08,1.5,10.905,10.905,0,0,0,1.409,5.3,1.15,1.15,0,0,1-.315,1.612,1.134,1.134,0,0,1-1.637-.381,12.638,12.638,0,0,1-1.219-2.861,12.912,12.912,0,0,1-.525-3.873l-.064-.006" transform="translate(-122.601 -142.44)" fill="#32a05f"/>
    <path id="Path_5260" data-name="Path 5260" d="M71.885,238.134h.582q2.386,0,4.771,0a1.152,1.152,0,1,1,.146,2.3c-.4.012-.8,0-1.193,0-1.723,0-3.446-.016-5.169.008a1.21,1.21,0,0,1-1.281-1.232,1.1,1.1,0,0,0-1.032-1.051,1.138,1.138,0,0,1-1.132-1.186,1.169,1.169,0,0,1,1.31-1.123,3.314,3.314,0,0,1,2.875,2.04c.034.073.073.144.121.24" transform="translate(-57.795 -201.712)" fill="#32a05f"/>
    <path id="Path_5261" data-name="Path 5261" d="M274.523,211.425c-.6,0-1.193-.016-1.789,0a1.147,1.147,0,0,1-1.155-.972,1.167,1.167,0,0,1,.76-1.251,1.088,1.088,0,0,1,.367-.06q1.822-.006,3.644,0a1.119,1.119,0,0,1,1.124,1,1.181,1.181,0,0,1-.792,1.234,1.918,1.918,0,0,1-.393.041c-.015,0-.029,0-.044,0h-1.723" transform="translate(-232.259 -178.873)" fill="#32a05f"/>
    <path id="Path_5262" data-name="Path 5262" d="M189.017,211.3c-.6,0-1.193-.016-1.789,0a1.147,1.147,0,0,1-1.155-.972,1.167,1.167,0,0,1,.76-1.251,1.086,1.086,0,0,1,.367-.059q1.822-.006,3.644,0a1.119,1.119,0,0,1,1.124,1,1.181,1.181,0,0,1-.792,1.234,1.916,1.916,0,0,1-.393.041c-.015,0-.029,0-.044,0h-1.723" transform="translate(-159.128 -178.766)" fill="#32a05f"/>
    <path id="Path_5263" data-name="Path 5263" d="M140.391,368.1h9.589a1.191,1.191,0,0,1,1.116.574,1.159,1.159,0,0,1-1,1.75c-.559.011-1.119,0-1.679,0q-2.917,0-5.833,0c-.521,0-1.042-.03-1.564-.032-.381,0-.763.032-1.144.032q-4.618,0-9.236,0a1.184,1.184,0,0,1-1.261-1.045c-.066-.449.339-1.22.947-1.222.388,0,.776-.056,1.164-.057q4.452-.008,8.9,0" transform="translate(-110.644 -314.825)" fill="#32a05f"/>
  </g>
</svg>
