<svg id="_2030-logo-1" data-name="2030-logo-1" xmlns="http://www.w3.org/2000/svg" width="133.676" height="89.338" viewBox="0 0 133.676 89.338">
  <g id="Group_22231" data-name="Group 22231">
    <path id="Path_5160" data-name="Path 5160" d="M121.273,80.915v.11c0,6.449-4.69,11.176-12.349,11.176a16.739,16.739,0,0,1-13.375-5.9l5.2-4.947c2.345,2.638,4.8,4.1,8.281,4.1,2.822,0,4.837-1.612,4.837-4.141v-.11c0-2.785-2.492-4.361-6.706-4.361h-3.115l-1.173-4.8,10.993-11.03-4.4,2.822H97.6V57.389H120.76v5.68l-8.648,8.245c4.617.806,9.161,3.261,9.161,9.6M99.8,41.779a5.393,5.393,0,0,1,5.35-5.606h3.518l-.916.476v8.465a6.985,6.985,0,0,0,.147,1.576,4.283,4.283,0,0,0,.22.733h-2.931A5.432,5.432,0,0,1,99.8,41.779Zm5.35,7.072h3.115V47.716c.037.037.073.11.11.147a2.239,2.239,0,0,0,.879.77,2.986,2.986,0,0,0,1.356.257h27.409V34.78h-1.5V47.422h-25.87a1.847,1.847,0,0,1-.7-.11.932.932,0,0,1-.44-.4,1.732,1.732,0,0,1-.22-.7,8.532,8.532,0,0,1-.073-1.063V34.78H105.15a6.935,6.935,0,0,0-7,7.036v.037a6.883,6.883,0,0,0,7,7m43.936-15.573h-3.3V32.069a1.821,1.821,0,0,1,.476-1.429,1.792,1.792,0,0,1,1.319-.44h1.063v1.063H147.62c-.22,0-.4.037-.476.147a.781.781,0,0,0-.11.44v.33h2.052v1.1ZM152.9,49.071a4.607,4.607,0,0,1-1.209-.183l.4-1.429a1.945,1.945,0,0,1,.4.11c.11,0,.22.037.366.037a1.847,1.847,0,0,0,.7-.11.932.932,0,0,0,.44-.4,1.733,1.733,0,0,0,.22-.7,8.533,8.533,0,0,0,.073-1.063V34.78h1.5V45.3a6.985,6.985,0,0,1-.147,1.576,3.628,3.628,0,0,1-.476,1.209,2.239,2.239,0,0,1-.879.77,3.967,3.967,0,0,1-1.392.22M109.254,33.278h-1.5v-1.5h1.5Zm33.052,5.167a3.482,3.482,0,0,1,.916-1.136,3.843,3.843,0,0,1,1.319-.733,3.986,3.986,0,0,1,1.466-.257h2.418l-.843.44V43.5h-1.539a5.459,5.459,0,0,1-1.576-.22,3.516,3.516,0,0,1-1.319-.7,3.245,3.245,0,0,1-.879-1.1,3.351,3.351,0,0,1-.33-1.5,3.963,3.963,0,0,1,.366-1.539m0,5.313a7,7,0,0,0,1.979.916,9.86,9.86,0,0,0,2.382.293h.4l.513-1.063v1.5a2.005,2.005,0,0,1-.66,1.686,3.184,3.184,0,0,1-1.905.513,4.308,4.308,0,0,1-1.246-.147,5.927,5.927,0,0,1-1.283-.44l-.476,1.429a13.949,13.949,0,0,0,1.539.476,5.5,5.5,0,0,0,1.356.147,4.222,4.222,0,0,0,3.188-1.026,3.9,3.9,0,0,0,.989-2.822V34.78h-2.418a7.951,7.951,0,0,0-2.528.4,6.377,6.377,0,0,0-1.979,1.063,4.693,4.693,0,0,0-1.722,3.7,4.837,4.837,0,0,0,.513,2.272,4.577,4.577,0,0,0,1.356,1.539m-36.057-10.48h-1.5v-1.5h1.5ZM90.676,34.744h1.539V48.815H90.932L80.965,36.173l.879,2.052V48.852H80.306V34.744h1.5l9.527,12.129-.66-1.722ZM32.083,48.925,26,34.744h1.759l.879,2.089,4.141,10.04.4.953-.147-1.539,4.8-11.543h1.722L33.475,48.925Zm26.86-14.181h1.576V48.815H58.943Zm17.113,7.072a5.557,5.557,0,1,1-11.1-.037v-.037a5.557,5.557,0,1,1,11.1.037Zm-5.533-7.292A7.154,7.154,0,0,0,63.3,41.816v.037a7.2,7.2,0,1,0,14.4-.037v-.037a7.072,7.072,0,0,0-7.182-7.255M56.341,45v.037c0,2.418-2.015,3.994-4.8,3.994a8.114,8.114,0,0,1-5.753-2.272l.989-1.173a6.759,6.759,0,0,0,4.837,1.979c1.905,0,3.151-.989,3.151-2.382v-.037c0-1.319-.7-2.052-3.664-2.675-3.261-.7-4.727-1.759-4.727-4.067v-.037c0-2.2,1.942-3.848,4.654-3.848a7.392,7.392,0,0,1,4.947,1.722l-.916,1.209a6.733,6.733,0,0,0-4.141-1.466c-1.832,0-3,.989-3,2.272V38.3c0,1.319.733,2.089,3.848,2.748s4.58,1.8,4.58,3.958M43.3,48.852H41.72V34.744H43.3Zm92.671,1.576h1.5v1.5h-1.5Zm-3,0h1.5v1.5h-1.5Zm-94.357,34.7H51.65v6.486H26.293V85.642l11.433-9.307c4.251-3.518,5.936-5.387,5.936-8.208,0-2.895-1.905-4.434-4.617-4.434-2.638,0-4.471,1.466-7,4.58l-5.313-4.251C30.1,59.442,33.4,56.95,39.521,56.95c7.109,0,11.8,4.141,11.8,10.553v.11c0,5.716-2.931,8.538-9.014,13.228l-7.475,5.753L33.365,87.73ZM151.761,74.612c0,5.863-4.214,10.663-10.3,10.663s-10.37-4.874-10.37-10.737v-.11c0-5.863,4.214-10.663,10.3-10.663s10.37,4.874,10.37,10.737ZM141.5,56.84c-10.59,0-18.248,7.952-18.248,17.7v.11c0,9.711,7.585,17.589,18.175,17.589s18.248-7.952,18.248-17.7v-.11c-.037-9.747-7.622-17.589-18.175-17.589" transform="translate(-26 -30.2)" fill="#ada9ae"/>
  </g>
  <path id="Path_5161" data-name="Path 5161" d="M149.049,96.7l1.759,1.686-1.686,1.722L147.4,98.459Z" transform="translate(-102.915 -72.332)" fill="#29367b"/>
  <path id="Path_5162" data-name="Path 5162" d="M162.8,98.459l1.722,1.649,1.686-1.722L164.449,96.7Z" transform="translate(-112.672 -72.332)" fill="#b1aeb3"/>
  <path id="Path_5163" data-name="Path 5163" d="M156.1,105.056l1.356,1.283,1.283-1.319-1.319-1.319Z" transform="translate(-108.427 -76.767)" fill="#d0da33"/>
  <path id="Path_5164" data-name="Path 5164" d="M169.6,107.119l1.356,1.319,1.319-1.356-1.356-1.283Z" transform="translate(-116.98 -78.098)" fill="#71ba44"/>
  <path id="Path_5165" data-name="Path 5165" d="M150.1,110.719l1.356,1.319,1.283-1.356-1.356-1.283Z" transform="translate(-104.625 -80.378)" fill="#d0da33"/>
  <path id="Path_5166" data-name="Path 5166" d="M162.5,111.156l1.319,1.283,1.319-1.356-1.356-1.283Z" transform="translate(-112.482 -80.632)" fill="#27b8be"/>
  <path id="Path_5167" data-name="Path 5167" d="M157.6,116.053l.953.916.916-.953-.953-.916Z" transform="translate(-109.377 -83.99)" fill="#71ba44"/>
  <path id="Path_5168" data-name="Path 5168" d="M167.4,118.016l.953.916.916-.953-.953-.879Z" transform="translate(-115.586 -85.257)" fill="#58b75e"/>
  <rect id="Rectangle_1621" data-name="Rectangle 1621" width="3.005" height="3.005" transform="translate(59.633 25.58) rotate(-10.387)" fill="#3088c8"/>
  <rect id="Rectangle_1622" data-name="Rectangle 1622" width="2.418" height="2.418" transform="translate(55.793 26.803) rotate(-10.376)" fill="#1e3871"/>
  <rect id="Rectangle_1623" data-name="Rectangle 1623" width="2.418" height="2.418" transform="translate(60.378 30.099) rotate(-10.393)" fill="#27b8be"/>
  <rect id="Rectangle_1624" data-name="Rectangle 1624" width="1.869" height="1.869" transform="translate(57.115 30.413) rotate(-10.382)" fill="#d0da33"/>
  <rect id="Rectangle_1625" data-name="Rectangle 1625" width="1.869" height="1.869" transform="translate(60.675 33.935) rotate(-10.382)" fill="#b1aeb3"/>
  <rect id="Rectangle_1626" data-name="Rectangle 1626" width="1.869" height="1.869" transform="translate(54.335 31.186) rotate(-10.382)" fill="#27b8be"/>
  <rect id="Rectangle_1627" data-name="Rectangle 1627" width="1.869" height="1.869" transform="translate(57.707 33.6) rotate(-10.382)" fill="#71ba44"/>
  <rect id="Rectangle_1628" data-name="Rectangle 1628" width="1.319" height="1.319" transform="translate(55.332 33.808) rotate(-10.387)" fill="#b1aeb3"/>
  <rect id="Rectangle_1629" data-name="Rectangle 1629" width="1.319" height="1.319" transform="translate(57.825 36.482) rotate(-10.358)" fill="#58b75e"/>
  <path id="Path_5169" data-name="Path 5169" d="M210.483,126.3l-1.283,2.675,2.712,1.283,1.283-2.675Z" transform="translate(-142.069 -91.086)" fill="#29367b"/>
  <path id="Path_5170" data-name="Path 5170" d="M200.426,122.9l-1.026,2.162,2.162,1.026,1.026-2.162Z" transform="translate(-135.86 -88.931)" fill="#27b8be"/>
  <path id="Path_5171" data-name="Path 5171" d="M205.263,137.4l-1.063,2.162,2.2,1.063,1.026-2.2Z" transform="translate(-138.901 -98.118)" fill="#71ba44"/>
  <path id="Path_5172" data-name="Path 5172" d="M197.906,133l-.806,1.686,1.686.806.806-1.686Z" transform="translate(-134.403 -95.33)" fill="#d0da33"/>
  <path id="Path_5173" data-name="Path 5173" d="M200.206,146.4l-.806,1.686,1.722.806.806-1.686Z" transform="translate(-135.86 -103.82)" fill="#d0da33"/>
  <path id="Path_5174" data-name="Path 5174" d="M190.606,130.3l-.806,1.686,1.686.77.806-1.686Z" transform="translate(-129.778 -93.62)" fill="#3088c8"/>
  <path id="Path_5175" data-name="Path 5175" d="M194.106,140.9l-.806,1.686,1.722.806.806-1.686Z" transform="translate(-131.995 -100.336)" fill="#b1aeb3"/>
  <path id="Path_5176" data-name="Path 5176" d="M188.986,137.7l-.586,1.173,1.209.55.55-1.173Z" transform="translate(-128.891 -98.308)" fill="#71ba44"/>
  <rect id="Rectangle_1630" data-name="Rectangle 1630" width="1.319" height="1.319" transform="matrix(0.43, -0.903, 0.903, 0.43, 59.968, 44.167)" fill="#27b8be"/>
  <path id="Path_5177" data-name="Path 5177" d="M212.138,161.6l-2.638,1.429,1.429,2.638,2.638-1.466Z" transform="translate(-142.259 -113.45)" fill="#3088c8"/>
  <path id="Path_5178" data-name="Path 5178" d="M206.525,152.7l-2.125,1.136,1.173,2.125,2.089-1.173Z" transform="translate(-139.028 -107.812)" fill="#27b8be"/>
  <path id="Path_5179" data-name="Path 5179" d="M201.925,167.3l-2.125,1.173,1.173,2.089,2.089-1.136Z" transform="translate(-136.114 -117.062)" fill="#27b8be"/>
  <path id="Path_5180" data-name="Path 5180" d="M199.049,159.2l-1.649.916.879,1.612,1.649-.879Z" transform="translate(-134.593 -111.93)" fill="#29367b"/>
  <path id="Path_5181" data-name="Path 5181" d="M193.049,171.5l-1.649.879.916,1.649,1.612-.916Z" transform="translate(-130.792 -119.723)" fill="#58b75e"/>
  <path id="Path_5182" data-name="Path 5182" d="M194.749,152.7l-1.649.916.879,1.612,1.649-.879Z" transform="translate(-131.869 -107.812)" fill="#1e3871"/>
  <path id="Path_5183" data-name="Path 5183" d="M191.349,163.4l-1.649.916.916,1.649,1.612-.916Z" transform="translate(-129.715 -114.591)" fill="#d0da33"/>
  <path id="Path_5184" data-name="Path 5184" d="M189.573,157.6l-1.173.623.66,1.136,1.136-.623Z" transform="translate(-128.891 -110.916)" fill="#b1aeb3"/>
  <path id="Path_5185" data-name="Path 5185" d="M184.773,166.3l-1.173.623.66,1.173,1.136-.66Z" transform="translate(-125.85 -116.428)" fill="#27b8be"/>
  <rect id="Rectangle_1631" data-name="Rectangle 1631" width="3.005" height="3.005" transform="matrix(0.123, -0.993, 0.993, 0.123, 60.131, 62.067)" fill="#71ba44"/>
  <rect id="Rectangle_1632" data-name="Rectangle 1632" width="2.418" height="2.418" transform="translate(60.768 57.544) rotate(-82.935)" fill="#1e3871"/>
  <rect id="Rectangle_1633" data-name="Rectangle 1633" width="2.418" height="2.418" transform="translate(56.256 60.903) rotate(-82.935)" fill="#27b8be"/>
  <rect id="Rectangle_1634" data-name="Rectangle 1634" width="1.869" height="1.869" transform="translate(57.481 57.236) rotate(-82.952)" fill="#71ba44"/>
  <rect id="Rectangle_1635" data-name="Rectangle 1635" width="1.869" height="1.869" transform="translate(53.082 59.625) rotate(-82.952)" fill="#b1aeb3"/>
  <rect id="Rectangle_1636" data-name="Rectangle 1636" width="1.869" height="1.869" transform="translate(57.588 54.381) rotate(-82.935)" fill="#b1aeb3"/>
  <rect id="Rectangle_1637" data-name="Rectangle 1637" width="1.869" height="1.869" transform="translate(54.315 56.842) rotate(-82.935)" fill="#71ba44"/>
  <rect id="Rectangle_1638" data-name="Rectangle 1638" width="1.319" height="1.319" transform="matrix(0.123, -0.992, 0.992, 0.123, 55.413, 54.074)" fill="#b1aeb3"/>
  <rect id="Rectangle_1639" data-name="Rectangle 1639" width="1.319" height="1.319" transform="translate(52.117 55.637) rotate(-82.952)" fill="#b1aeb3"/>
  <path id="Path_5186" data-name="Path 5186" d="M159.551,203.915l-2.2-2.015-2.052,2.2,2.2,2.015Z" transform="translate(-107.92 -138.983)" fill="#d0da33"/>
  <path id="Path_5187" data-name="Path 5187" d="M158.451,89.552l-2.2-2.052L154.2,89.7l2.2,2.015Z" transform="translate(-107.223 -66.503)" fill="#71ba44"/>
  <path id="Path_5188" data-name="Path 5188" d="M167.408,195.649,165.649,194,164,195.759l1.759,1.649Z" transform="translate(-113.432 -133.978)" fill="#27b8be"/>
  <path id="Path_5189" data-name="Path 5189" d="M152.008,195.912l-1.759-1.612-1.649,1.759,1.759,1.612Z" transform="translate(-103.675 -134.168)" fill="#71ba44"/>
  <path id="Path_5190" data-name="Path 5190" d="M159.938,190.483l-1.392-1.283-1.246,1.356,1.356,1.283Z" transform="translate(-109.187 -130.937)" fill="#3088c8"/>
  <path id="Path_5191" data-name="Path 5191" d="M146.338,188.683l-1.356-1.283-1.283,1.356,1.392,1.283Z" transform="translate(-100.571 -129.796)" fill="#d0da33"/>
  <path id="Path_5192" data-name="Path 5192" d="M164.738,184.346l-1.392-1.246-1.246,1.356,1.356,1.283Z" transform="translate(-112.228 -127.072)" fill="#d0da33"/>
  <path id="Path_5193" data-name="Path 5193" d="M153.438,184.483l-1.356-1.283-1.283,1.392,1.392,1.246Z" transform="translate(-105.069 -127.135)" fill="#b1aeb3"/>
  <path id="Path_5194" data-name="Path 5194" d="M159.569,180.879l-.953-.879-.916.953.989.879Z" transform="translate(-109.441 -125.108)" fill="#1e3871"/>
  <path id="Path_5195" data-name="Path 5195" d="M149.769,179.079l-.953-.879-.916.953.953.879Z" transform="translate(-103.232 -123.968)" fill="#b1aeb3"/>
  <rect id="Rectangle_1640" data-name="Rectangle 1640" width="3.005" height="3.005" transform="translate(35.282 60.129) rotate(-11.332)" fill="#3088c8"/>
  <rect id="Rectangle_1641" data-name="Rectangle 1641" width="2.418" height="2.418" transform="matrix(0.98, -0.196, 0.196, 0.98, 39.804, 59.293)" fill="#27b8be"/>
  <rect id="Rectangle_1642" data-name="Rectangle 1642" width="2.418" height="2.418" transform="matrix(0.98, -0.197, 0.197, 0.98, 35.19, 56.07)" fill="#71ba44"/>
  <rect id="Rectangle_1643" data-name="Rectangle 1643" width="1.869" height="1.869" transform="matrix(0.98, -0.196, 0.196, 0.98, 39.078, 56.081)" fill="#d0da33"/>
  <rect id="Rectangle_1644" data-name="Rectangle 1644" width="1.869" height="1.869" transform="matrix(0.98, -0.196, 0.196, 0.98, 41.824, 55.275)" fill="#29367b"/>
  <rect id="Rectangle_1645" data-name="Rectangle 1645" width="1.869" height="1.869" transform="matrix(0.98, -0.196, 0.196, 0.98, 38.454, 52.927)" fill="#3088c8"/>
  <rect id="Rectangle_1646" data-name="Rectangle 1646" width="1.319" height="1.319" transform="translate(41.441 53.132) rotate(-11.314)" fill="#71ba44"/>
  <rect id="Rectangle_1647" data-name="Rectangle 1647" width="1.319" height="1.319" transform="matrix(0.98, -0.197, 0.197, 0.98, 38.912, 50.492)" fill="#b1aeb3"/>
  <path id="Path_5196" data-name="Path 5196" d="M102.848,167.858l1.246-2.712-2.748-1.246-1.246,2.748Z" transform="translate(-72.947 -114.908)" fill="#27b8be"/>
  <path id="Path_5197" data-name="Path 5197" d="M114.362,172.488l.989-2.2-2.162-.989-.989,2.2Z" transform="translate(-80.613 -118.329)" fill="#d0da33"/>
  <path id="Path_5198" data-name="Path 5198" d="M109.262,157.988l1.026-2.2-2.2-.989L107.1,157Z" transform="translate(-77.382 -109.142)" fill="#3088c8"/>
  <rect id="Rectangle_1648" data-name="Rectangle 1648" width="1.869" height="1.869" transform="translate(33.076 49.636) rotate(-65.485)" fill="#27b8be"/>
  <path id="Path_5199" data-name="Path 5199" d="M124.122,175.092l.77-1.686-1.686-.806-.806,1.722Z" transform="translate(-87.076 -120.42)" fill="#b1aeb3"/>
  <rect id="Rectangle_1649" data-name="Rectangle 1649" width="1.869" height="1.869" transform="matrix(0.415, -0.91, 0.91, 0.415, 32.138, 44.738)" fill="#29367b"/>
  <rect id="Rectangle_1650" data-name="Rectangle 1650" width="1.869" height="1.869" transform="matrix(0.415, -0.91, 0.91, 0.415, 35.762, 50.61)" fill="#58b75e"/>
  <rect id="Rectangle_1651" data-name="Rectangle 1651" width="1.869" height="1.869" transform="translate(34.395 46.721) rotate(-65.455)" fill="#d0da33"/>
  <path id="Path_5200" data-name="Path 5200" d="M128.009,159.959l.55-1.209-1.209-.55-.55,1.209Z" transform="translate(-89.863 -111.296)" fill="#1e3871"/>
  <path id="Path_5201" data-name="Path 5201" d="M126.609,150.122l.55-1.209-1.209-.513-.55,1.173Z" transform="translate(-88.976 -105.087)" fill="#71ba44"/>
  <path id="Path_5202" data-name="Path 5202" d="M100.466,132.467l2.6-1.466-1.466-2.6L99,129.866Z" transform="translate(-72.25 -92.416)" fill="#27b8be"/>
  <path id="Path_5203" data-name="Path 5203" d="M107.609,142.6l2.089-1.209-1.209-2.089-2.089,1.209Z" transform="translate(-76.939 -99.322)" fill="#71ba44"/>
  <path id="Path_5204" data-name="Path 5204" d="M111.973,127.9l2.089-1.209-1.173-2.089-2.089,1.209Z" transform="translate(-79.726 -90.009)" fill="#1e3871"/>
  <path id="Path_5205" data-name="Path 5205" d="M116.253,137.228l1.612-.916-.916-1.612-1.649.916Z" transform="translate(-82.577 -96.408)" fill="#3088c8"/>
  <path id="Path_5206" data-name="Path 5206" d="M122.016,124.865l1.649-.953-.916-1.612-1.649.916Z" transform="translate(-86.252 -88.551)" fill="#71ba44"/>
  <path id="Path_5207" data-name="Path 5207" d="M120.716,143.628l1.612-.916-.916-1.612-1.612.916Z" transform="translate(-85.428 -100.462)" fill="#27b8be"/>
  <path id="Path_5208" data-name="Path 5208" d="M123.916,132.865l1.612-.916-.916-1.649-1.612.953Z" transform="translate(-87.456 -93.62)" fill="#d0da33"/>
  <path id="Path_5209" data-name="Path 5209" d="M127.06,140l1.136-.66-.66-1.136-1.136.66Z" transform="translate(-89.61 -98.625)" fill="#b1aeb3"/>
  <path id="Path_5210" data-name="Path 5210" d="M131.66,131.2l1.173-.66-.66-1.136-1.173.66Z" transform="translate(-92.524 -93.05)" fill="#71ba44"/>
  <rect id="Rectangle_1652" data-name="Rectangle 1652" width="3.005" height="3.005" transform="matrix(0.106, -0.994, 0.994, 0.106, 34.418, 28.602)" fill="#71ba44"/>
  <rect id="Rectangle_1653" data-name="Rectangle 1653" width="2.382" height="2.418" transform="translate(34.536 32.624) rotate(-83.892)" fill="#b1aeb3"/>
  <rect id="Rectangle_1654" data-name="Rectangle 1654" width="2.418" height="2.418" transform="translate(38.99 29.208) rotate(-83.892)" fill="#27b8be"/>
  <rect id="Rectangle_1655" data-name="Rectangle 1655" width="1.869" height="1.869" transform="translate(38.377 32.427) rotate(-83.886)" fill="#d0da33"/>
  <rect id="Rectangle_1656" data-name="Rectangle 1656" width="1.869" height="1.869" transform="translate(42.771 29.96) rotate(-83.91)" fill="#3088c8"/>
  <rect id="Rectangle_1657" data-name="Rectangle 1657" width="1.869" height="1.869" transform="translate(38.319 35.252) rotate(-83.886)" fill="#27b8be"/>
  <rect id="Rectangle_1658" data-name="Rectangle 1658" width="1.869" height="1.869" transform="translate(41.606 32.738) rotate(-83.886)" fill="#71ba44"/>
  <rect id="Rectangle_1659" data-name="Rectangle 1659" width="1.319" height="1.319" transform="translate(41.139 35.079) rotate(-83.892)" fill="#1e3871"/>
  <rect id="Rectangle_1660" data-name="Rectangle 1660" width="1.319" height="1.319" transform="translate(44.429 33.434) rotate(-83.927)" fill="#b1aeb3"/>
  <g id="Group_22232" data-name="Group 22232" transform="translate(0 34.482)">
    <path id="Path_5211" data-name="Path 5211" d="M152.828,135.733a8.091,8.091,0,0,0-1.173-.513,7.457,7.457,0,0,0-3.261-.257,8.214,8.214,0,0,0-1.429.366c-.037,0-.11.037-.147.037-.257.11-.513.22-.733.33a3.481,3.481,0,0,0-.623.366,16.719,16.719,0,0,0-1.429.989,32.01,32.01,0,0,1-.147-7.622h0c1.136.7.806,2.712.586,3.261,0,0,0,.037.037,0a3.524,3.524,0,0,0,.44-3.958h0a3.386,3.386,0,0,1,.513.513,3,3,0,0,1,.623,1.686,5.365,5.365,0,0,1,0,.77v.183h0a3.353,3.353,0,0,0,0-2.968,4.324,4.324,0,0,0-.623-.879l-.257-.257v-.037c.073.037.183.037.257.073a1.688,1.688,0,0,1,.623.33,2.364,2.364,0,0,1,.879,1.209,3.088,3.088,0,0,1,.22,1.1h.037a2.74,2.74,0,0,0-.22-2.235,2.411,2.411,0,0,0-.879-.843,3.11,3.11,0,0,0-.623-.293,1.132,1.132,0,0,0-.293-.073v-.037h.293a3.353,3.353,0,0,1,.623.037,2.446,2.446,0,0,1,.879.366,1.629,1.629,0,0,1,.586.623h.037a1.773,1.773,0,0,0-.623-1.209,2.559,2.559,0,0,0-.879-.476,4.481,4.481,0,0,0-.623-.11,1.972,1.972,0,0,0-.806.147h0a1.765,1.765,0,0,1,.806-.586,1.921,1.921,0,0,1,.623-.073,1.17,1.17,0,0,1,.513.11h0a1.622,1.622,0,0,0-.55-.44,2.116,2.116,0,0,0-.623-.22,1.591,1.591,0,0,0-1.539.77h-.037l-.22-.44a6.235,6.235,0,0,1-.366-1.173h-.037a4.364,4.364,0,0,1-.366,1.173l-.22.44h0a1.644,1.644,0,0,0-2.712-.11h0a1.663,1.663,0,0,1,1.979.513h0a2.317,2.317,0,0,0-2.528.623,1.73,1.73,0,0,0-.4.989s0,.037.037,0a1.787,1.787,0,0,1,.4-.476,2.512,2.512,0,0,1,2.052-.55v.037a2.707,2.707,0,0,0-2.052,1.649,3.053,3.053,0,0,0-.037,1.832h.037v-.037a2.675,2.675,0,0,1,1.979-2.638s.037,0,0,.037a3.284,3.284,0,0,0-.916,4.067h.037a3.391,3.391,0,0,1,1.136-3.151h0a3.457,3.457,0,0,0,.44,3.958h.037c-.22-.55-.55-2.565.586-3.261h0a32.008,32.008,0,0,1-.147,7.622,10.681,10.681,0,0,0-2.822-1.649l-.33-.11a7.22,7.22,0,0,0-2.675-.366,6.863,6.863,0,0,0-2.748.7,1.6,1.6,0,0,0-.257.147c-.037,0,0,.073.037.037a2.331,2.331,0,0,1,.257-.073,7.952,7.952,0,0,1,2.748-.257,7.452,7.452,0,0,1,2.675.733,14.135,14.135,0,0,1,3.151,2.052c-1.356,1.173-2.492,2.309-3.151,2.712-.037.037-.073.037-.11.073a.754.754,0,0,0-.77-.293.826.826,0,0,0-.55.55.592.592,0,0,0,.147.623,1.05,1.05,0,0,0,1.283.183,18.216,18.216,0,0,0,3.518-2.931,3.306,3.306,0,0,1,.366-.33c.11.11.257.22.366.33.66.586,1.246,1.173,1.759,1.649.22.183.44.4.623.55a8.126,8.126,0,0,0,.879.623,1.148,1.148,0,0,0,1.429-.037l.073-.073a.839.839,0,0,0,.147-.623.76.76,0,0,0-.22-.366,1.485,1.485,0,0,0-.33-.183.754.754,0,0,0-.77.293,1.286,1.286,0,0,1-.293-.183c-.257-.183-.55-.44-.879-.733-.183-.183-.4-.366-.623-.586-.44-.4-.916-.843-1.429-1.283a14.466,14.466,0,0,1,1.429-1.063c.22-.147.44-.293.623-.4.293-.183.586-.33.879-.476a8.263,8.263,0,0,1,1.429-.55,7.427,7.427,0,0,1,3.261-.22c.366.073.77.147,1.173.257-.073.037-.037,0-.073,0" transform="translate(-94.272 -124.3)" fill="#727a82"/>
    <path id="Path_5212" data-name="Path 5212" d="M74,228.042h.843v-7.7H74ZM51.467,227.2l-1.356-3.3a3.352,3.352,0,0,1,1.026-.623,2.67,2.67,0,0,1,1.1-.183,2.986,2.986,0,0,1,1.136.22,2.785,2.785,0,0,1,.953.586l-1.356,3.3Zm-4.764,0h-.879a2.531,2.531,0,0,1-.916-.147,1.588,1.588,0,0,1-.733-.4,2.123,2.123,0,0,1-.513-.623,2.03,2.03,0,0,1,0-1.686,2.282,2.282,0,0,1,.513-.66,3,3,0,0,1,.733-.44,2.463,2.463,0,0,1,.879-.147h.879v4.1Zm23.928,0H69.239a2.57,2.57,0,0,1-1.173-.22,1.438,1.438,0,0,1-.66-.66,4.666,4.666,0,0,0,.073-.806v-2.785h-.843v2.895a1.748,1.748,0,0,1-.4,1.173,1.526,1.526,0,0,1-1.209.44,2.133,2.133,0,0,1-.7-.11,1.38,1.38,0,0,1-.55-.33,2.353,2.353,0,0,1-.366-.476,1.536,1.536,0,0,1-.147-.586v-3.041h-.843v2.968a1.775,1.775,0,0,1-.11.66,1,1,0,0,1-.33.44,1.206,1.206,0,0,1-.476.257,2.829,2.829,0,0,1-.55.073H59.309v-4.434h-.843v4.434H53.959l1.5-3.591a5.463,5.463,0,0,0-.733-.55,5.833,5.833,0,0,0-.806-.476,3.281,3.281,0,0,0-.843-.293,3.285,3.285,0,0,0-1.686,0,7.673,7.673,0,0,0-.843.293,5.831,5.831,0,0,0-.806.476c-.257.183-.476.366-.733.586l1.5,3.591H47.546v-4.984H46.154a4.725,4.725,0,0,0-1.466.22,3.774,3.774,0,0,0-1.136.623,2.892,2.892,0,0,0-.733.916,2.606,2.606,0,0,0-.257,1.173,2.92,2.92,0,0,0,.293,1.319,2.24,2.24,0,0,0,.77.879,3.584,3.584,0,0,0,1.136.513,5.5,5.5,0,0,0,1.356.183h.513v.257a1.115,1.115,0,0,1-.4.953,1.869,1.869,0,0,1-1.1.293,4.512,4.512,0,0,1-.733-.073,4.442,4.442,0,0,1-.733-.257l-.257.843a5.592,5.592,0,0,0,.879.257,2.744,2.744,0,0,0,.77.073,2.4,2.4,0,0,0,1.832-.586,2.281,2.281,0,0,0,.586-1.612v-.147H60.848a2.2,2.2,0,0,0,1.905-.989,2.227,2.227,0,0,0,.843.806,2.761,2.761,0,0,0,1.283.293,2.925,2.925,0,0,0,1.319-.257,1.874,1.874,0,0,0,.843-.843,2.224,2.224,0,0,0,.257.366,3.892,3.892,0,0,0,.4.33,1.619,1.619,0,0,0,.586.22,3.227,3.227,0,0,0,.623.073H71.4v-7.7h-.843V227.2Zm77.171-.366a1.955,1.955,0,0,1-.476.7,2.4,2.4,0,0,1-1.649.66,2.214,2.214,0,0,1-.879-.183,2.347,2.347,0,0,1-.7-.476,2.938,2.938,0,0,1-.476-.7,2.214,2.214,0,0,1-.183-.879,2.519,2.519,0,0,1,.183-.879,2.44,2.44,0,0,1,.44-.733,1.82,1.82,0,0,1,.7-.476,2.214,2.214,0,0,1,.879-.183,2.552,2.552,0,0,1,.916.183,1.952,1.952,0,0,1,.733.476,1.82,1.82,0,0,1,.476.7,2.551,2.551,0,0,1,.183.916,1.5,1.5,0,0,1-.147.879m-8.318,0a1.955,1.955,0,0,1-.476.7,2.4,2.4,0,0,1-1.649.66,2.214,2.214,0,0,1-.879-.183,2.347,2.347,0,0,1-.7-.476,2.938,2.938,0,0,1-.476-.7,2.214,2.214,0,0,1-.183-.879,2.519,2.519,0,0,1,.183-.879,2.439,2.439,0,0,1,.44-.733,1.82,1.82,0,0,1,.7-.476,2.214,2.214,0,0,1,.879-.183,2.552,2.552,0,0,1,.916.183,1.953,1.953,0,0,1,.733.476,1.82,1.82,0,0,1,.476.7,2.551,2.551,0,0,1,.183.916,2.464,2.464,0,0,1-.147.879m-20.923.366h-.843a2.531,2.531,0,0,1-.916-.147,2.36,2.36,0,0,1-.733-.4,2.282,2.282,0,0,1-.513-.66,2.214,2.214,0,0,1-.183-.879,2.174,2.174,0,0,1,.183-.843,2.282,2.282,0,0,1,.513-.66,2.067,2.067,0,0,1,.733-.4,2.272,2.272,0,0,1,.843-.147h.843V227.2Zm32.979,0h-2.968a2.974,2.974,0,0,0,.257-1.283,3.1,3.1,0,0,0-1.905-2.895,3.434,3.434,0,0,0-1.246-.257,2.655,2.655,0,0,0-1.209.257,4.657,4.657,0,0,0-.989.66,3.592,3.592,0,0,0-.66.989,3.228,3.228,0,0,0-.22,1.209,3.748,3.748,0,0,0,.257,1.283h-2.675a2.974,2.974,0,0,0,.257-1.283,3.1,3.1,0,0,0-1.905-2.895,3.433,3.433,0,0,0-1.246-.257,2.655,2.655,0,0,0-1.209.257,4.655,4.655,0,0,0-.989.66,3.592,3.592,0,0,0-.66.989,3.228,3.228,0,0,0-.22,1.209,3.747,3.747,0,0,0,.257,1.283h-2.748v-6.852h-.843v6.852h-2.638v-1.319a2.732,2.732,0,0,0-.147-.953,1.939,1.939,0,0,0-.4-.77,1.871,1.871,0,0,0-.77-.55,2.912,2.912,0,0,0-1.063-.183h-3.811l1.612-3.078h-.916l-1.649,3.078a1.815,1.815,0,0,0,.147.476,2.464,2.464,0,0,0,.257.4h4.4a1.983,1.983,0,0,1,.7.11,1.116,1.116,0,0,1,.476.33,1.207,1.207,0,0,1,.257.476,3.227,3.227,0,0,1,.073.623v1.319h-7.952v-4.984h-1.356a4.562,4.562,0,0,0-1.466.22,3.775,3.775,0,0,0-1.136.623,3.51,3.51,0,0,0-.733.916,2.5,2.5,0,0,0-.257,1.173,2.92,2.92,0,0,0,.293,1.319,2.642,2.642,0,0,0,.77.916,3.584,3.584,0,0,0,1.136.513,5.5,5.5,0,0,0,1.356.183h17.076a3.04,3.04,0,0,0,.989.7,2.812,2.812,0,0,0,1.246.257,2.974,2.974,0,0,0,1.283-.257,2.928,2.928,0,0,0,1.026-.733h3.774a3.04,3.04,0,0,0,.989.7,2.812,2.812,0,0,0,1.246.257,2.974,2.974,0,0,0,1.283-.257,2.928,2.928,0,0,0,1.026-.733h4.361v-7.7H151.5v7Zm3.371.843h.843v-7.7h-.843Zm-63.393,1.905H92.4v-.879h-.879Zm8.428-2.748-1.356-3.3a3.352,3.352,0,0,1,1.026-.623,2.67,2.67,0,0,1,1.1-.183,2.986,2.986,0,0,1,1.136.22,2.785,2.785,0,0,1,.953.586l-1.356,3.3Zm6.083,0h-3.664l1.5-3.591a5.463,5.463,0,0,0-.733-.55,5.833,5.833,0,0,0-.806-.476,3.281,3.281,0,0,0-.843-.293,3.285,3.285,0,0,0-1.686,0,7.673,7.673,0,0,0-.843.293,5.831,5.831,0,0,0-.806.476c-.257.183-.476.366-.733.586l1.5,3.591H95.733v-4.984H94.89v6.01a3.16,3.16,0,0,1-.037.623,1.032,1.032,0,0,1-.147.4.493.493,0,0,1-.257.22,1.317,1.317,0,0,1-.4.073h-.22c-.073,0-.147-.037-.22-.037l-.22.843a2.3,2.3,0,0,0,.7.11,1.7,1.7,0,0,0,.77-.147,1.492,1.492,0,0,0,.513-.44,1.321,1.321,0,0,0,.257-.7,6.631,6.631,0,0,0,.073-.916v-.183h11.066v-7.7h-.843V227.2Zm-65.3-4.214a1.871,1.871,0,0,0-.77-.55,2.852,2.852,0,0,0-1.026-.183h-.623v.843h.77a1.075,1.075,0,0,1,.586.147,1.366,1.366,0,0,1,.733.843,3.287,3.287,0,0,1,.073.66v2.492H36.443v.843h4.91v-3.371a2.732,2.732,0,0,0-.147-.953,3.072,3.072,0,0,0-.476-.77m47.637,6.962h.879v-.879h-.879Zm-5.2-2.748h-.843a2.531,2.531,0,0,1-.916-.147,2.36,2.36,0,0,1-.733-.4,2.282,2.282,0,0,1-.513-.66,2.214,2.214,0,0,1-.183-.879,2.174,2.174,0,0,1,.183-.843,2.282,2.282,0,0,1,.513-.66,2.067,2.067,0,0,1,.733-.4,2.272,2.272,0,0,1,.843-.147h.843V227.2Zm9.234-4.984h-.843V227.2H88.294v-4.984h-.843V227.2H84.043v-4.984H82.688a4.562,4.562,0,0,0-1.466.22,3.775,3.775,0,0,0-1.136.623,3.51,3.51,0,0,0-.733.916,2.5,2.5,0,0,0-.257,1.173,2.92,2.92,0,0,0,.293,1.319,2.642,2.642,0,0,0,.77.916,3.584,3.584,0,0,0,1.136.513,5.5,5.5,0,0,0,1.356.183H92.4v-5.863Zm-5.533,7.732h.879v-.879h-.879Zm-57.457-9.6h-.879v.879h.879Zm88.494,0h-.879v.879h.879Zm-33.9,0h-.879v.879h.879Zm-49.542,9.6h.879v-.879h-.879Zm48.04-9.6h-.879v.879H82.5Zm-51.594,0h-.879v.879h.879Zm2.052,9.6h.879v-.879h-.879ZM30.031,227.2h-.843a2.531,2.531,0,0,1-.916-.147,2.36,2.36,0,0,1-.733-.4,2.282,2.282,0,0,1-.513-.66,2.214,2.214,0,0,1-.183-.879,2.174,2.174,0,0,1,.183-.843,2.282,2.282,0,0,1,.513-.66,2.067,2.067,0,0,1,.733-.4,2.272,2.272,0,0,1,.843-.147h.916Zm5.167-4.984h-.843V227.2H30.947v-4.984H29.591a4.562,4.562,0,0,0-1.466.22,3.774,3.774,0,0,0-1.136.623,3.51,3.51,0,0,0-.733.916A2.5,2.5,0,0,0,26,225.147a2.92,2.92,0,0,0,.293,1.319,2.642,2.642,0,0,0,.77.916,3.584,3.584,0,0,0,1.136.513,5.5,5.5,0,0,0,1.356.183H35.2Zm74.2,5.826h.843v-7.7H109.4Zm10-7.7h-.879v.879h.879Z" transform="translate(-26 -185.059)" fill="#ada9ae"/>
  </g>
  <path id="Path_5213" data-name="Path 5213" d="M28.3,257h1.063v3.078L32.294,257h1.319l-2.528,2.638,2.638,3.518H32.441l-2.089-2.785-.989.989v1.8H28.3Z" transform="translate(-27.457 -173.893)" fill="#ada9ae"/>
  <rect id="Rectangle_1661" data-name="Rectangle 1661" width="1.063" height="6.119" transform="translate(7.255 83.107)" fill="#ada9ae"/>
  <path id="Path_5214" data-name="Path 5214" d="M53.3,257h1.026l3.261,4.251V257H58.65v6.156h-.879L54.363,258.8v4.361H53.3Z" transform="translate(-43.296 -173.893)" fill="#ada9ae"/>
  <g id="Group_22233" data-name="Group 22233" transform="translate(16.709 82.998)">
    <path id="Path_5215" data-name="Path 5215" d="M71.6,259.888h0a3.136,3.136,0,0,1,3.151-3.188,3.22,3.22,0,0,1,2.345.843l-.7.806a2.44,2.44,0,0,0-1.722-.66,2.062,2.062,0,0,0-1.979,2.162h0a2.071,2.071,0,0,0,2.089,2.2,2.341,2.341,0,0,0,1.466-.476v-1.1H74.678v-.953h2.6v2.565a3.961,3.961,0,0,1-2.565.953,2.991,2.991,0,0,1-3.115-3.151" transform="translate(-71.6 -256.7)" fill="#ada9ae"/>
    <path id="Path_5216" data-name="Path 5216" d="M93.609,262.167a2,2,0,0,0,2.125-2.052h0a2.01,2.01,0,0,0-2.125-2.089H92.4V262.2h1.209ZM91.3,257h2.309a3.047,3.047,0,0,1,3.261,3.041h0a3.075,3.075,0,0,1-3.261,3.078H91.3Z" transform="translate(-84.081 -256.89)" fill="#ada9ae"/>
    <path id="Path_5217" data-name="Path 5217" d="M114.577,259.888h0a2.091,2.091,0,1,0-4.177-.037h0a2.114,2.114,0,0,0,2.089,2.2,2.04,2.04,0,0,0,2.089-2.162m-5.277,0h0a3.131,3.131,0,0,1,3.225-3.188,3.092,3.092,0,0,1,3.188,3.151h0a3.152,3.152,0,0,1-3.225,3.188,3.071,3.071,0,0,1-3.188-3.151" transform="translate(-95.485 -256.7)" fill="#ada9ae"/>
  </g>
  <path id="Path_5218" data-name="Path 5218" d="M130.5,257h1.136l1.869,2.895L135.374,257h1.136v6.156h-1.063v-4.4l-1.942,2.895h-.037l-1.905-2.895v4.4H130.5Z" transform="translate(-92.208 -173.893)" fill="#ada9ae"/>
  <g id="Group_22234" data-name="Group 22234" transform="translate(48.26 82.998)">
    <path id="Path_5219" data-name="Path 5219" d="M162.977,259.888h0a2.091,2.091,0,1,0-4.177-.037h0a2.114,2.114,0,0,0,2.089,2.2,2.04,2.04,0,0,0,2.089-2.162m-5.277,0h0a3.131,3.131,0,0,1,3.225-3.188,3.092,3.092,0,0,1,3.188,3.151h0a3.152,3.152,0,0,1-3.225,3.188,3.071,3.071,0,0,1-3.188-3.151" transform="translate(-157.7 -256.7)" fill="#ada9ae"/>
  </g>
  <path id="Path_5220" data-name="Path 5220" d="M178.9,257h4.58v.989h-3.518v1.686h3.115v.989h-3.115v2.492H178.9Z" transform="translate(-122.872 -173.893)" fill="#ada9ae"/>
  <g id="Group_22235" data-name="Group 22235" transform="translate(64.016 83.034)">
    <path id="Path_5221" data-name="Path 5221" d="M200.7,262.113l.66-.77a2.811,2.811,0,0,0,1.942.806c.66,0,1.1-.293,1.1-.77h0c0-.44-.257-.66-1.392-.953-1.319-.33-2.052-.7-2.052-1.832h0a1.881,1.881,0,0,1,2.089-1.8,3.381,3.381,0,0,1,2.235.77l-.586.806a2.823,2.823,0,0,0-1.686-.623c-.623,0-.989.33-.989.733h0c0,.476.293.7,1.466.953,1.283.33,1.979.77,1.979,1.8h0c0,1.136-.916,1.832-2.2,1.832a3.559,3.559,0,0,1-2.565-.953" transform="translate(-200.7 -256.8)" fill="#ada9ae"/>
  </g>
  <path id="Path_5222" data-name="Path 5222" d="M219.551,260.638l-1.063-2.455-1.063,2.455Zm-1.539-3.738H219l2.712,6.193h-1.136l-.623-1.466h-2.931l-.623,1.466h-1.1Z" transform="translate(-145.934 -173.829)" fill="#ada9ae"/>
  <g id="Group_22236" data-name="Group 22236" transform="translate(76.402 83.107)">
    <path id="Path_5223" data-name="Path 5223" d="M234.5,260.554V257h1.063v3.481c0,1.136.586,1.759,1.539,1.759s1.539-.586,1.539-1.722V257H239.7v3.481a2.443,2.443,0,0,1-2.638,2.748,2.4,2.4,0,0,1-2.565-2.675" transform="translate(-234.5 -257)" fill="#ada9ae"/>
    <path id="Path_5224" data-name="Path 5224" d="M255.472,262.167a2,2,0,0,0,2.125-2.052h0a2.01,2.01,0,0,0-2.125-2.089h-1.209V262.2h1.209ZM253.2,257h2.309a3.047,3.047,0,0,1,3.261,3.041h0a3.075,3.075,0,0,1-3.261,3.078H253.2Z" transform="translate(-246.348 -257)" fill="#ada9ae"/>
  </g>
  <rect id="Rectangle_1662" data-name="Rectangle 1662" width="1.063" height="6.119" transform="translate(90.18 83.107)" fill="#ada9ae"/>
  <path id="Path_5225" data-name="Path 5225" d="M289.514,260.638l-1.063-2.455-1.063,2.455Zm-1.539-3.738h.989l2.712,6.193H290.54l-.623-1.466h-2.895l-.623,1.466h-1.1Z" transform="translate(-190.283 -173.829)" fill="#ada9ae"/>
  <g id="Group_22237" data-name="Group 22237" transform="translate(102.419 83.107)">
    <path id="Path_5226" data-name="Path 5226" d="M308.175,260.041c.77,0,1.283-.4,1.283-1.026h0c0-.66-.476-1.026-1.283-1.026H306.6v2.052ZM305.5,257h2.748a2.332,2.332,0,0,1,1.759.623,1.856,1.856,0,0,1,.513,1.319h0a1.894,1.894,0,0,1-1.466,1.869l1.649,2.309h-1.283l-1.5-2.125H306.6v2.125h-1.063V257Z" transform="translate(-305.5 -257)" fill="#ada9ae"/>
  </g>
  <path id="Path_5227" data-name="Path 5227" d="M326.214,260.638l-1.063-2.455-1.063,2.455Zm-1.539-3.738h.989l2.712,6.193H327.24l-.623-1.466h-2.895l-.623,1.466H322Z" transform="translate(-213.535 -173.829)" fill="#ada9ae"/>
  <g id="Group_22238" data-name="Group 22238" transform="translate(115.83 83.107)">
    <path id="Path_5228" data-name="Path 5228" d="M344.995,262.2c.733,0,1.173-.293,1.173-.843h0c0-.513-.4-.806-1.246-.806H343.2v1.686h1.8Zm-.33-2.6c.7,0,1.173-.257,1.173-.843h0c0-.476-.4-.77-1.063-.77h-1.539V259.6Zm-2.528-2.6h2.748a2.2,2.2,0,0,1,1.612.55,1.379,1.379,0,0,1,.4,1.026h0a1.456,1.456,0,0,1-.879,1.356,1.5,1.5,0,0,1,1.209,1.5h0c0,1.1-.916,1.686-2.272,1.686H342.1V257Z" transform="translate(-342.1 -257)" fill="#ada9ae"/>
  </g>
  <rect id="Rectangle_1663" data-name="Rectangle 1663" width="1.063" height="6.119" transform="translate(122.316 83.107)" fill="#ada9ae"/>
  <path id="Path_5229" data-name="Path 5229" d="M369.851,260.638l-1.063-2.455-1.063,2.455Zm-1.576-3.738h.989l2.712,6.193H370.84l-.623-1.466h-2.895l-.623,1.466h-1.1Z" transform="translate(-241.159 -173.829)" fill="#ada9ae"/>
</svg>
