<svg id="Group_69" data-name="Group 69" xmlns="http://www.w3.org/2000/svg" width="52" height="53" viewBox="0 0 52 53">
  <rect id="Rectangle_1610" data-name="Rectangle 1610" width="52" height="53" rx="9" fill="#32a05f"/>
  <g id="_015-magnifying_glass" data-name="015-magnifying glass" transform="translate(7.759 9.886)">
    <path id="Path_1096" data-name="Path 1096" d="M52.6,66.205a13.6,13.6,0,1,1,9.619-3.985A13.6,13.6,0,0,1,52.6,66.205Zm0-26.483a12.88,12.88,0,1,0,9.107,3.773A12.88,12.88,0,0,0,52.6,39.722Z" transform="translate(-38.995 -38.997)" fill="#fff"/>
    <path id="Path_1097" data-name="Path 1097" d="M56.672,67.995a11.309,11.309,0,1,1,8.008-3.312A11.309,11.309,0,0,1,56.672,67.995Zm0-21.919a10.6,10.6,0,1,0,7.5,3.1A10.6,10.6,0,0,0,56.672,46.076Z" transform="translate(-43.067 -43.069)" fill="#fff"/>
    <path id="Path_1098" data-name="Path 1098" d="M94.821,100.932a.362.362,0,0,1-.256-.106l-2.134-2.134a.362.362,0,1,1,.511-.511l1.878,1.878,5.236-5.236L98.18,92.945a.362.362,0,1,1,.511-.511l2.133,2.134a.362.362,0,0,1,0,.511l-5.748,5.748A.362.362,0,0,1,94.821,100.932Z" transform="translate(-73.041 -73.043)" fill="#fff"/>
    <path id="Path_1099" data-name="Path 1099" d="M111.195,114.95c-.04,0-.08,0-.12,0a3.717,3.717,0,0,1-2.7-1.266l-7.387-8.362a.362.362,0,0,1,.016-.5l3.814-3.812a.362.362,0,0,1,.5-.016l8.361,7.387a3.754,3.754,0,0,1-2.481,6.567Zm-9.438-9.854,7.162,8.107a3.03,3.03,0,1,0,4.277-4.277l-8.107-7.162Z" transform="translate(-78.514 -78.52)" fill="#fff"/>
    <path id="Path_1106" data-name="Path 1106" d="M84.073,55.221a.362.362,0,0,1-.3-.165,8.768,8.768,0,0,0-7.16-4,.362.362,0,0,1,.018-.723,9.489,9.489,0,0,1,7.749,4.334.362.362,0,0,1-.3.558Z" transform="translate(-62.782 -46.231)" fill="#fff"/>
  </g>
</svg>
