<svg xmlns="http://www.w3.org/2000/svg" width="19.294" height="15.881" viewBox="0 0 19.294 15.881">
  <path id="Path_5231" data-name="Path 5231" d="M118.458,11.629a7.971,7.971,0,0,1-1.951.556c.313-.052.774-.62.959-.85a3.59,3.59,0,0,0,.648-1.181c.017-.034.029-.076,0-.1a.109.109,0,0,0-.1.009,9.964,9.964,0,0,1-2.314.885.154.154,0,0,1-.159-.042,1.893,1.893,0,0,0-.2-.207,4.106,4.106,0,0,0-1.121-.686,3.886,3.886,0,0,0-1.719-.277,4.124,4.124,0,0,0-1.631.46,4.206,4.206,0,0,0-1.315,1.075,4.05,4.05,0,0,0-.786,1.573,4.261,4.261,0,0,0-.041,1.661c.012.093,0,.106-.08.093a12.358,12.358,0,0,1-7.949-4.046c-.093-.106-.144-.106-.22.008a4.032,4.032,0,0,0,.688,4.763c.155.148.315.3.488.43a4.063,4.063,0,0,1-1.534-.43c-.093-.059-.139-.025-.148.08a2.469,2.469,0,0,0,.026.456,4.076,4.076,0,0,0,2.512,3.249,2.315,2.315,0,0,0,.51.156,4.582,4.582,0,0,1-1.505.047c-.11-.021-.151.033-.11.139a4.232,4.232,0,0,0,3.162,2.647c.143.025.286.025.43.058-.009.013-.017.013-.026.026a5,5,0,0,1-2.158,1.144,7.747,7.747,0,0,1-3.279.42c-.176-.026-.213-.024-.261,0s-.006.072.05.117c.224.148.451.279.683.4a10.837,10.837,0,0,0,2.192.877,11.672,11.672,0,0,0,11.332-2.65,11.89,11.89,0,0,0,3.137-8.676c0-.124.147-.193.235-.259a7.668,7.668,0,0,0,1.542-1.6.487.487,0,0,0,.1-.307v-.017c0-.051,0-.036-.079,0" transform="translate(-99.243 -9.726)" fill="#fff"/>
</svg>
